# xmcd
#
# Track frame offsets:
#	150
#	12038
#	34456
#	54373
#	79338
#	98566
#	116670
#	149461
#	165343
#	179041
#	192113
#	208536
#	228783
#	253898
#	278096
#	289813
#	299486
#
# Disc length: 4187 seconds
#
# Revision: 0
# Processed by: cddbd v1.4PL0 Copyright (c) Steve Scherf et al.
# Submitted via: EasyCDDAExtractor 4.6.9.1
#
DISCID=f7105911
DTITLE=Diversen Artiesten - Cuba Havana 2
DYEAR=1900
DGENRE=Blues
TTITLE0=Leyanis Lopez - Como la Mariposa
TTITLE1=Vieja trova Santiaguera - Rico Vacilon
TTITLE2=Septeto Nacional - En Guantanamo
TTITLE3=Orquesta Hermanos Izquierdo - Potpouri de Cha-cha-cha
TTITLE4=Orquesta Aragon - Separala Tambien
TTITLE5=Septeto tipico tivoli - tirame la pelota
TTITLE6=los van van - Que le den candela
TTITLE7=Eliades ochoa y cuarteto patria - A una coqueta
TTITLE8=Reinaldo Creach - piel Canela
TTITLE9=Septeto habanero - revive la illusion
TTITLE10=Tipico oriental - dialogo
TTITLE11=Company segundo - Chan chan
TTITLE12=Septeto tipico tivoli - Esquina san Ramon
TTITLE13=trio los dos - El quarto de tula
TTITLE14=Company segundo - Filiberto
TTITLE15=Osdalgia - La culebra
TTITLE16=La sonoea sotanera - Mambo nr1
EXTD=
EXTT0=
EXTT1=
EXTT2=
EXTT3=
EXTT4=
EXTT5=
EXTT6=
EXTT7=
EXTT8=
EXTT9=
EXTT10=
EXTT11=
EXTT12=
EXTT13=
EXTT14=
EXTT15=
EXTT16=
PLAYORDER=
